<svg id="Capa_1" enable-background="new 0 0 562 562" height="512" viewBox="0 0 562 562" width="512" xmlns="http://www.w3.org/2000/svg"><path d="m456.625 0h-351.25c-19.398 0-35.125 15.727-35.125 35.125v491.75c0 19.398 15.727 35.125 35.125 35.125h351.25c19.398 0 35.125-15.727 35.125-35.125v-491.75c0-19.398-15.728-35.125-35.125-35.125zm-175.625 526.875c-19.4 0-35.125-15.727-35.125-35.125 0-19.4 15.725-35.125 35.125-35.125s35.125 15.725 35.125 35.125c0 19.397-15.725 35.125-35.125 35.125zm140.5-105.375h-281v-351.25h281z"/></svg>