<?xml version="1.0" standalone="no"?>
<!DOCTYPE svg PUBLIC "-//W3C//DTD SVG 20010904//EN"
 "http://www.w3.org/TR/2001/REC-SVG-20010904/DTD/svg10.dtd">
<svg version="1.0" xmlns="http://www.w3.org/2000/svg"
 width="300.000000pt" height="300.000000pt" viewBox="0 0 300.000000 300.000000"
 preserveAspectRatio="xMidYMid meet">
<metadata>
Created by potrace 1.11, written by Peter Selinger 2001-2013
</metadata>
<g transform="translate(0.000000,300.000000) scale(0.100000,-0.100000)"
fill="#000000" stroke="none">
<path d="M242 2980 c-102 -37 -178 -109 -219 -210 -17 -43 -18 -109 -18 -1275
l0 -1230 33 -68 c26 -52 47 -79 90 -112 110 -87 -6 -80 1352 -82 847 -2 1217
0 1245 8 138 38 227 124 261 253 11 42 13 266 11 1261 l-2 1210 -22 47 c-30
66 -70 113 -129 154 -97 67 -34 64 -1354 63 -1142 -1 -1197 -2 -1248 -19z"/>
</g>
</svg>
