<svg height="512" viewBox="0 0 58 58" width="512" xmlns="http://www.w3.org/2000/svg"><g id="Page-1" fill="none" fill-rule="evenodd"><g id="010---Surverying-Measurments" fill-rule="nonzero"><path id="Shape" d="m8 0h-6c-1.10320187.0032948-1.9967052.89679813-2 2v54c.0032948 1.1032019.89679813 1.9967052 2 2h6c1.10320187-.0032948 1.9967052-.8967981 2-2v-54c-.0032948-1.10320187-.89679813-1.9967052-2-2zm-3 54c-1.1045695 0-2-.8954305-2-2s.8954305-2 2-2 2 .8954305 2 2c-.0032948 1.1032019-.89679813 1.9967052-2 2z" fill="#f0c419"/><g fill="#e57e25"><path id="Shape" d="m10 44v2h-4c-.55228475 0-1-.4477153-1-1s.44771525-1 1-1z"/><path id="Shape" d="m10 40v2h-2c-.55228475 0-1-.4477153-1-1s.44771525-1 1-1z"/><path id="Shape" d="m10 36v2h-4c-.55228475 0-1-.4477153-1-1s.44771525-1 1-1z"/><path id="Shape" d="m10 32v2h-2c-.55228475 0-1-.4477153-1-1s.44771525-1 1-1z"/><path id="Shape" d="m10 28v2h-4c-.55228475 0-1-.4477153-1-1s.44771525-1 1-1z"/><path id="Shape" d="m10 24v2h-2c-.55228475 0-1-.4477153-1-1s.44771525-1 1-1z"/><path id="Shape" d="m10 20v2h-4c-.55228475 0-1-.4477153-1-1s.44771525-1 1-1z"/><path id="Shape" d="m10 16v2h-2c-.55228475 0-1-.4477153-1-1s.44771525-1 1-1z"/><path id="Shape" d="m10 12v2h-4c-.55228475 0-1-.4477153-1-1s.44771525-1 1-1z"/><path id="Shape" d="m10 8v2h-2c-.55228475 0-1-.44771525-1-1s.44771525-1 1-1z"/><path id="Shape" d="m10 4v2h-4c-.55228475 0-1-.44771525-1-1s.44771525-1 1-1z"/></g><path id="Shape" d="m39.4 35v22c0 .5522847-.4477153 1-1 1h-4c-.5522847 0-1-.4477153-1-1v-22z" fill="#7f8c8d"/><path id="Shape" d="m27.883 36.3-7.25 21.03c-.1397915.3998911-.5163826.6683124-.94.67h-3.893c-.3233079-.0012862-.6260457-.1588027-.8126492-.4228269-.1866036-.2640241-.2340458-.6019751-.1273508-.9071731l9.54-27.67h3z" fill="#95a5a5"/><path id="Shape" d="m45.4 29h3l9.54 27.67c.106695.305198.0592528.643149-.1273508.9071731-.1866035.2640242-.4893413.4215407-.8126492.4228269h-3.887c-.4236174-.0016876-.8002085-.2701089-.94-.67l-7.25-21.03z" fill="#95a5a5"/><path id="Shape" d="m45.4 12h3c1.1029749.0038403 1.9961597.8970251 2 2v13c-.0038403 1.1029749-.8970251 1.9961597-2 2h-24c-1.1032019-.0032948-1.9967052-.8967981-2-2v-13c.0032948-1.1032019.8967981-1.9967052 2-2z" fill="#d25627"/><path id="Shape" d="m45.4000117 29-.0000117 6c.0016375.4769737-.1687871.9385403-.48 1.3-.3808312.443182-.9356705.6987001-1.52.7h-14c-.5844175-.0009001-1.1394154-.2564912-1.52-.7-.3112129-.3614597-.4816375-.8230263-.48-1.3l-.0000117-6z" fill="#464f5d"/><rect id="Rectangle-path" fill="#f0c419" height="24" rx="2" width="18" x="27.403"/><circle id="Oval" cx="36.403" cy="12" fill="#9fc9d3" r="5"/><path id="Shape" d="m31.4 4c0 .55228475-.4477153 1-1 1h-3v-2h3c.5522847 0 1 .44771525 1 1z" fill="#b19046"/><path id="Shape" d="m45.4 3v2h-3c-.5522847 0-1-.44771525-1-1s.4477153-1 1-1z" fill="#b19046"/><path id="Shape" d="m31.4 20c0 .5522847-.4477153 1-1 1h-3v-2h3c.5522847 0 1 .4477153 1 1z" fill="#b19046"/><path id="Shape" d="m45.4 19v2h-3c-.5522847 0-1-.4477153-1-1s.4477153-1 1-1z" fill="#b19046"/><path id="Shape" d="m36.4 18c-3.3137085 0-6-2.6862915-6-6s2.6862915-6 6-6 6 2.6862915 6 6c-.0033074 3.3123376-2.6876624 5.9966926-6 6zm0-10c-2.209139 0-4 1.790861-4 4s1.790861 4 4 4 4-1.790861 4-4c0-1.060866-.4214274-2.07828161-1.1715729-2.82842712-.7501455-.75014552-1.7675611-1.17157288-2.8284271-1.17157288z" fill="#464f5d"/></g></g></svg>