<?xml version="1.0" standalone="no"?>
<!DOCTYPE svg PUBLIC "-//W3C//DTD SVG 20010904//EN"
 "http://www.w3.org/TR/2001/REC-SVG-20010904/DTD/svg10.dtd">
<svg version="1.0" xmlns="http://www.w3.org/2000/svg"
 width="512.000000pt" height="512.000000pt" viewBox="0 0 512.000000 512.000000"
 preserveAspectRatio="xMidYMid meet">
<metadata>
Created by potrace 1.14, written by Peter Selinger 2001-2017
</metadata>
<g transform="translate(0.000000,512.000000) scale(0.100000,-0.100000)"
fill="#000000" stroke="none">
<path d="M4660 5104 c-291 -42 -581 -138 -915 -302 -88 -44 -200 -103 -250
-132 -49 -29 -99 -58 -110 -64 -199 -113 -653 -449 -875 -649 -213 -191 -386
-361 -564 -550 l-119 -127 -55 31 c-72 39 -237 94 -328 109 -126 20 -242 19
-395 -4 -56 -8 -209 -60 -294 -100 -203 -95 -319 -182 -547 -407 -192 -190
-215 -225 -204 -316 9 -77 26 -103 128 -205 103 -101 142 -125 218 -132 69 -6
118 11 233 81 165 100 280 135 427 128 75 -4 156 -17 165 -27 1 -1 5 -27 7
-56 l5 -53 -52 -34 c-164 -105 -332 -327 -459 -610 -48 -107 -108 -274 -122
-337 -34 -163 -38 -193 -38 -293 -1 -114 9 -180 34 -248 76 -203 259 -303 532
-292 114 5 132 8 263 41 395 99 796 343 949 577 26 40 43 57 53 53 8 -3 32 -6
53 -6 38 0 40 -2 51 -42 7 -24 12 -90 13 -148 1 -157 -25 -238 -133 -415 -64
-106 -80 -152 -76 -221 4 -74 36 -126 137 -226 106 -104 133 -120 208 -124 92
-5 125 17 307 201 222 225 319 357 413 560 82 175 112 309 112 495 0 186 -38
346 -117 501 l-34 66 117 110 c195 184 394 386 522 532 36 41 70 79 75 85 6 6
46 54 89 106 43 52 86 104 95 115 120 145 374 515 486 710 59 102 177 337 229
455 83 188 167 460 197 635 6 39 13 77 14 86 2 8 6 54 10 101 9 108 -9 176
-64 246 -78 99 -189 126 -391 96z"/>
</g>
</svg>
