<svg width="40" height="40" viewBox="0 0 40 40" fill="none" xmlns="http://www.w3.org/2000/svg">
<rect width="40" height="40" rx="3.20281" fill="#7F40BD"/>
<path d="M26.5315 18.5854C26.5522 16.1039 24.4806 13.829 21.9135 13.5144C21.8624 13.5082 21.8068 13.4988 21.7479 13.4889C21.6208 13.4674 21.4894 13.4453 21.3568 13.4453C20.8307 13.4453 20.69 13.8224 20.653 14.0472C20.617 14.2659 20.6514 14.4495 20.7549 14.5932C20.9291 14.8349 21.2357 14.8778 21.482 14.9122C21.5541 14.9224 21.6222 14.9319 21.6792 14.9449C23.9857 15.4707 24.7623 16.2973 25.1418 18.6303C25.1511 18.6873 25.1553 18.7576 25.1597 18.8321C25.1763 19.111 25.2108 19.6912 25.8222 19.6912H25.8223C25.8732 19.6912 25.9279 19.6867 25.9848 19.6779C26.5542 19.5896 26.5364 19.0592 26.5278 18.8044C26.5254 18.7326 26.5231 18.6647 26.5291 18.6196C26.5306 18.6082 26.5314 18.5968 26.5315 18.5854Z" fill="#F4F4F4"/>
<path d="M21.2078 12.6041C21.2761 12.6091 21.3408 12.6139 21.3946 12.6223C25.182 13.2166 26.9238 15.0473 27.4065 18.9414C27.4147 19.0076 27.416 19.0883 27.4173 19.1738C27.4221 19.478 27.432 20.111 28.0983 20.1241L28.119 20.1243C28.3279 20.1243 28.4942 20.06 28.613 19.9331C28.8204 19.7118 28.806 19.383 28.7943 19.1187C28.7915 19.0539 28.7887 18.9929 28.7894 18.9394C28.8376 14.9567 25.4584 11.3452 21.5581 11.211C21.5419 11.2104 21.5265 11.2113 21.5109 11.2135C21.5032 11.2147 21.489 11.2161 21.4647 11.2161C21.4258 11.2161 21.3779 11.2127 21.3272 11.2092C21.2658 11.2049 21.1963 11.2 21.1258 11.2C20.5046 11.2 20.3866 11.6504 20.3715 11.9188C20.3366 12.5394 20.925 12.583 21.2078 12.6041Z" fill="#F4F4F4"/>
<path d="M27.2241 23.9751C27.1435 23.9123 27.0603 23.8474 26.9823 23.7833C26.5688 23.4438 26.1289 23.1309 25.7034 22.8283C25.6151 22.7655 25.5268 22.7027 25.4388 22.6397C24.8938 22.2492 24.4039 22.0594 23.9409 22.0594C23.3174 22.0594 22.7739 22.4109 22.3252 23.1039C22.1264 23.4111 21.8853 23.5605 21.5881 23.5605C21.4123 23.5605 21.2126 23.5094 20.9946 23.4084C19.2355 22.5946 17.9793 21.3468 17.261 19.6997C16.9138 18.9036 17.0264 18.3832 17.6375 17.9597C17.9845 17.7194 18.6305 17.2721 18.5847 16.4154C18.5329 15.4426 16.429 12.5156 15.5425 12.1832C15.1672 12.0424 14.7729 12.0411 14.3684 12.1799C13.3493 12.5294 12.618 13.1432 12.2533 13.9548C11.9009 14.739 11.9168 15.6598 12.2993 16.6177C13.4051 19.3871 14.9597 21.8017 16.9202 23.7943C18.8392 25.7448 21.1977 27.3425 23.9303 28.5429C24.1766 28.651 24.435 28.71 24.6236 28.753C24.6879 28.7678 24.7434 28.7804 24.7839 28.7917C24.8061 28.7979 24.829 28.8012 24.852 28.8014L24.8736 28.8015C24.8737 28.8015 24.8736 28.8015 24.8737 28.8015C26.159 28.8015 27.7022 27.6033 28.1762 26.2374C28.5914 25.0413 27.8332 24.4501 27.2241 23.9751Z" fill="#F4F4F4"/>
<path d="M21.776 15.7676C21.556 15.7732 21.098 15.7848 20.9373 16.2607C20.8622 16.483 20.8712 16.6761 20.9641 16.8345C21.1005 17.0669 21.3619 17.1381 21.5996 17.1772C22.4618 17.3184 22.9045 17.8047 22.9931 18.7077C23.0342 19.1288 23.3121 19.4228 23.669 19.4228H23.669C23.6954 19.4228 23.7224 19.4212 23.7492 19.4179C24.1784 19.3658 24.3864 19.0441 24.3676 18.4619C24.3745 17.8542 24.0628 17.1643 23.5326 16.6148C23.0006 16.0636 22.3593 15.7532 21.776 15.7676Z" fill="#F4F4F4"/>
</svg>
