<svg width="40" height="40" viewBox="0 0 40 40" fill="none" xmlns="http://www.w3.org/2000/svg">
<rect width="40" height="40" rx="3.20281" fill="#DC4E41"/>
<path d="M7.20531 20.0099C7.13534 23.3477 9.47296 26.5329 12.6886 27.5718C15.7175 28.5725 19.4416 27.8239 21.4571 25.2728C22.9287 23.4853 23.2631 21.1024 23.1038 18.876C20.5098 18.8532 17.9159 18.8608 15.3258 18.8646C15.3216 19.7734 15.3258 20.6787 15.3297 21.5875C16.8828 21.6297 18.4363 21.6103 19.9894 21.6411C19.5974 22.9625 18.7042 24.1922 17.3487 24.6694C14.7315 25.8036 11.3921 24.3218 10.5686 21.6218C9.57458 19.0361 11.2019 15.9159 13.8887 15.1638C15.5547 14.5873 17.271 15.2364 18.6965 16.0881C19.4187 15.4235 20.0946 14.7132 20.7584 13.9953C19.1388 12.6625 17.0576 11.8454 14.9179 12.0248C10.7198 12.074 7.04602 15.8855 7.20531 20.0099Z" fill="#DC4E41"/>
<path d="M28.1525 16.5725C28.1448 17.3326 28.1367 18.0965 28.1328 18.8562C27.3561 18.8638 26.5835 18.8676 25.8107 18.8715C25.8107 19.6315 25.8107 20.3875 25.8107 21.1476C26.5835 21.1514 27.3603 21.1552 28.1328 21.1631C28.1406 21.9232 28.1406 22.683 28.1483 23.4469C28.9173 23.4469 29.6902 23.4431 30.4627 23.4469C30.4669 22.683 30.4704 21.9232 30.4785 21.1593C31.2511 21.1555 32.0278 21.1517 32.8007 21.1479C32.8007 20.3878 32.8007 19.6319 32.8007 18.8718C32.0281 18.868 31.2514 18.8642 30.4785 18.8566C30.4743 18.0965 30.4669 17.3326 30.4627 16.5729C29.6902 16.5725 28.9212 16.5725 28.1525 16.5725Z" fill="#DC4E41"/>
<path d="M7.20531 20.0098C7.04603 15.8853 10.7195 12.0738 14.9176 12.0244C17.0572 11.8449 19.1388 12.662 20.7581 13.9948C20.0939 14.713 19.418 15.423 18.6961 16.0876C17.2707 15.2359 15.5544 14.5868 13.8883 15.1633C11.2012 15.9158 9.57388 19.036 10.5683 21.6213C11.3918 24.3214 14.7312 25.8031 17.3484 24.6689C18.7035 24.1917 19.597 22.962 19.9891 21.6406C18.4359 21.6102 16.8825 21.6292 15.3293 21.587C15.3254 20.6782 15.3216 19.7729 15.3254 18.8641C17.9155 18.8603 20.5095 18.8527 23.1035 18.8755C23.2627 21.1022 22.9287 23.4852 21.4568 25.2723C19.4412 27.8234 15.7175 28.572 12.6882 27.5713C9.47331 26.5328 7.13534 23.3476 7.20531 20.0098Z" fill="white"/>
<path d="M28.1525 16.5725C28.9215 16.5725 29.6902 16.5725 30.4627 16.5725C30.4669 17.3326 30.4743 18.0965 30.4785 18.8562C31.2511 18.8638 32.0278 18.8676 32.8007 18.8715C32.8007 19.6315 32.8007 20.3875 32.8007 21.1476C32.0281 21.1514 31.2514 21.1552 30.4785 21.159C30.4708 21.9229 30.4669 22.6826 30.4627 23.4465C29.6902 23.4427 28.9169 23.4465 28.1483 23.4465C28.1409 22.6826 28.1409 21.9229 28.1328 21.1628C27.3603 21.1548 26.5835 21.1514 25.8107 21.1472C25.8107 20.3871 25.8107 19.6312 25.8107 18.8711C26.5835 18.8673 27.3564 18.8635 28.1328 18.8559C28.1367 18.0965 28.1444 17.3326 28.1525 16.5725Z" fill="white"/>
</svg>
