<svg width="40" height="40" viewBox="0 0 40 40" fill="none" xmlns="http://www.w3.org/2000/svg">
<rect width="40" height="40" rx="3.20281" fill="url(#paint0_linear)"/>
<path d="M20 10.4094C16.0679 10.4094 12.3339 10.0599 10.9077 13.7173C10.3186 15.2279 10.4041 17.1897 10.4041 19.9988C10.4041 22.4638 10.3251 24.7805 10.9077 26.2792C12.3307 29.9388 16.0949 29.5882 19.9979 29.5882C23.7632 29.5882 27.6456 29.9799 29.0891 26.2792C29.6793 24.7535 29.5927 22.8209 29.5927 19.9988C29.5927 16.2526 29.7995 13.8342 27.9813 12.0185C26.1403 10.1789 23.6506 10.4094 19.9957 10.4094H20ZM19.1402 12.1375C27.3423 12.1245 28.3863 11.2134 27.8102 23.8705C27.6055 28.347 24.1942 27.8558 20.0011 27.8558C12.3556 27.8558 12.1357 27.6372 12.1357 19.9945C12.1357 12.263 12.7422 12.1418 19.1402 12.1353V12.1375ZM25.1223 13.7292C24.4866 13.7292 23.9711 14.2443 23.9711 14.8795C23.9711 15.5147 24.4866 16.0297 25.1223 16.0297C25.758 16.0297 26.2735 15.5147 26.2735 14.8795C26.2735 14.2443 25.758 13.7292 25.1223 13.7292ZM20 15.0742C17.2786 15.0742 15.0727 17.2795 15.0727 19.9988C15.0727 22.7181 17.2786 24.9223 20 24.9223C22.7214 24.9223 24.9263 22.7181 24.9263 19.9988C24.9263 17.2795 22.7214 15.0742 20 15.0742ZM20 16.8023C24.2289 16.8023 24.2343 23.1953 20 23.1953C15.7722 23.1953 15.7657 16.8023 20 16.8023Z" fill="white"/>
<defs>
<linearGradient id="paint0_linear" x1="2.68567" y1="37.394" x2="39.7484" y2="5.31035" gradientUnits="userSpaceOnUse">
<stop stop-color="#FFDD55"/>
<stop offset="0.293195" stop-color="#FF543E"/>
<stop offset="0.543396" stop-color="#D62976"/>
<stop offset="0.743556" stop-color="#C837AB"/>
<stop offset="0.970301" stop-color="#4F5BD5"/>
</linearGradient>
</defs>
</svg>
