<svg width="40" height="40" viewBox="0 0 40 40" fill="none" xmlns="http://www.w3.org/2000/svg">
<rect width="40" height="40" rx="3.20281" fill="#4680C2"/>
<path d="M26.9241 21.4762C27.561 22.098 28.2332 22.683 28.8044 23.3675C29.0568 23.6717 29.2956 23.9856 29.4784 24.3386C29.7374 24.8404 29.5028 25.3927 29.0529 25.4226L26.2557 25.4213C25.5343 25.4812 24.9588 25.1908 24.4749 24.6975C24.0876 24.3031 23.729 23.8832 23.3566 23.4755C23.204 23.3088 23.0442 23.152 22.8533 23.028C22.4715 22.7802 22.14 22.856 21.9218 23.2543C21.6996 23.6594 21.6491 24.1079 21.6273 24.5593C21.5973 25.2179 21.3983 25.3911 20.7366 25.4213C19.3227 25.4879 17.9808 25.274 16.7342 24.5608C15.6351 23.932 14.7829 23.0442 14.0411 22.0393C12.5969 20.0824 11.4908 17.9321 10.4967 15.7215C10.273 15.2235 10.4366 14.9561 10.9862 14.9467C11.8986 14.9289 12.811 14.9302 13.7246 14.9454C14.0955 14.9508 14.341 15.1635 14.4842 15.5139C14.9779 16.7278 15.582 17.8827 16.3402 18.9532C16.5422 19.2382 16.7481 19.5233 17.0412 19.7239C17.3656 19.946 17.6126 19.8724 17.7652 19.511C17.862 19.2819 17.9044 19.0351 17.9262 18.7897C17.9985 17.9455 18.0081 17.1027 17.8813 16.2614C17.8034 15.7364 17.5077 15.3965 16.9838 15.2971C16.7165 15.2465 16.7562 15.147 16.8857 14.9944C17.1105 14.7312 17.322 14.5674 17.7435 14.5674H20.9047C21.4023 14.6656 21.5129 14.8892 21.581 15.3899L21.5837 18.9013C21.5783 19.0951 21.6805 19.6704 22.0297 19.7987C22.3091 19.8901 22.4933 19.6665 22.661 19.4893C23.4179 18.686 23.9581 17.7367 24.4407 16.7536C24.6548 16.3214 24.839 15.8725 25.0175 15.424C25.1497 15.0911 25.3572 14.9274 25.7321 14.9346L28.7745 14.9373C28.8647 14.9373 28.956 14.9386 29.0434 14.9536C29.556 15.041 29.6966 15.2615 29.5382 15.7621C29.2887 16.5476 28.8033 17.2021 28.3286 17.8597C27.8213 18.5617 27.2786 19.2398 26.7755 19.946C26.3132 20.591 26.3499 20.916 26.9241 21.4762Z" fill="#F4F4F4"/>
</svg>
