<svg width="40" height="40" viewBox="0 0 40 40" fill="none" xmlns="http://www.w3.org/2000/svg">
<rect width="40" height="40" rx="3.20281" fill="#ED812B"/>
<path d="M13.0132 20.8227C12.4247 21.9474 13.0929 22.485 14.6175 23.4034C15.9136 24.1819 17.7041 24.4665 18.8543 24.5804L17.8903 25.482C16.5242 26.7467 15.2281 27.9713 14.3218 28.8198C13.0026 30.049 15.1263 32.0212 16.4445 30.8181L20.0131 27.472C21.3793 28.7498 22.6888 29.9743 23.5817 30.8228C24.9008 32.0306 27.0235 30.0751 25.7188 28.8244L22.1502 25.4867L21.1728 24.5851C22.3374 24.4712 24.1011 24.1697 25.3818 23.4081L25.3808 23.4072C26.9054 22.4841 27.5736 21.9474 26.9938 20.8227C26.6433 20.1842 25.6986 19.6503 24.4409 20.5734C24.4409 20.5734 22.7426 21.8382 20.0035 21.8382C17.2634 21.8382 15.566 20.5734 15.566 20.5734C14.3083 19.6457 13.3598 20.1842 13.0132 20.8227Z" fill="white"/>
<path d="M20.0005 20.133C23.3397 20.133 26.0663 17.5961 26.0663 14.4731C26.0663 11.337 23.3397 8.80005 20.0005 8.80005C16.6604 8.80005 13.9338 11.337 13.9338 14.4731C13.9338 17.5961 16.6604 20.133 20.0005 20.133ZM20.0005 11.6739C21.6413 11.6739 22.9796 12.9255 22.9796 14.4731C22.9796 16.0075 21.6413 17.2592 20.0005 17.2592C18.3598 17.2592 17.0214 16.0075 17.0214 14.4731C17.0205 12.9246 18.3588 11.6739 20.0005 11.6739Z" fill="white"/>
</svg>
