<svg width="40" height="40" viewBox="0 0 40 40" fill="none" xmlns="http://www.w3.org/2000/svg">
<rect width="40" height="40" rx="3.20281" fill="#30B0E1"/>
<path d="M27.7245 28.5906L31.185 11.2723C31.2985 10.7045 30.7214 10.2393 30.1688 10.4532L9.3436 18.5145C8.59709 18.8034 8.62548 19.8405 9.38675 20.0905L14.6666 21.8238L16.6373 28.2171C16.7621 28.6219 17.281 28.7578 17.5978 28.4686L20.7523 25.5894L25.6777 29.3346C26.4316 29.9078 27.542 29.5042 27.7245 28.5906Z" fill="white"/>
<path d="M27.2844 14.5058L17.5773 23.1513L17.0064 28.5694C16.8253 28.4882 16.6303 28.7184 14.6528 21.851L26.9793 14.1211C27.2374 13.9592 27.5109 14.304 27.2844 14.5058Z" fill="#D2E5F1"/>
<path d="M17.7033 28.3519L20.767 25.5887L17.5779 23.137L17.007 28.5686C17.2632 28.6336 17.5779 28.4512 17.7033 28.3519Z" fill="#B5CFE4"/>
</svg>
