<svg width="40" height="40" viewBox="0 0 40 40" fill="none" xmlns="http://www.w3.org/2000/svg">
<rect width="40" height="40" rx="3.20281" fill="#4CAF50"/>
<path d="M15.0697 28.0475C16.5076 28.9333 18.1942 29.4405 20.0022 29.4405C25.2082 29.4405 29.4405 25.2056 29.4405 20C29.4405 14.7943 25.2082 10.5594 20.0022 10.5594H19.9978C14.7917 10.5594 10.5594 14.7931 10.5594 20C10.5594 21.9448 11.1502 23.7573 12.1651 25.2607L11.1712 28.2233L10.769 29.4223L11.9736 29.0372L15.0697 28.0475Z" stroke="#F4F4F4" stroke-width="1.28112"/>
<path d="M25.123 23.6267C24.9107 24.2262 24.0681 24.7234 23.396 24.8686C22.9362 24.9665 22.3356 25.0446 20.3138 24.2064C17.7277 23.135 16.0623 20.5071 15.9325 20.3366C15.8082 20.1661 14.8875 18.9451 14.8875 17.6823C14.8875 16.4195 15.5288 15.8046 15.7873 15.5406C15.9996 15.3239 16.3505 15.2249 16.6871 15.2249C16.796 15.2249 16.8939 15.2304 16.9819 15.2348C17.2404 15.2458 17.3702 15.2612 17.5407 15.6693C17.753 16.1808 18.27 17.4436 18.3316 17.5734C18.3943 17.7032 18.457 17.8792 18.369 18.0497C18.2865 18.2257 18.2139 18.3038 18.0841 18.4534C17.9543 18.603 17.8311 18.7174 17.7013 18.878C17.5825 19.0177 17.4483 19.1673 17.5979 19.4258C17.7475 19.6788 18.2645 20.5225 19.0257 21.2001C20.008 22.0746 20.8044 22.354 21.0893 22.4728C21.3016 22.5608 21.5546 22.5399 21.7097 22.3749C21.9066 22.1626 22.1497 21.8106 22.3972 21.4641C22.5732 21.2155 22.7954 21.1847 23.0286 21.2727C23.2662 21.3552 24.5235 21.9767 24.782 22.1054C25.0405 22.2352 25.2109 22.2968 25.2737 22.4057C25.3352 22.5146 25.3352 23.0261 25.123 23.6267Z" fill="#F4F4F4"/>
</svg>
