<svg width="40" height="40" viewBox="0 0 40 40" fill="none" xmlns="http://www.w3.org/2000/svg">
<rect width="40" height="40" rx="3.20281" fill="#3B5998"/>
<path d="M24.3994 11.2036L22.117 11.2C19.553 11.2 17.8959 12.9 17.8959 15.5313V17.5284H15.6012C15.4029 17.5284 15.2423 17.6892 15.2423 17.8874V20.781C15.2423 20.9793 15.4031 21.1398 15.6012 21.1398H17.8959V28.4411C17.8959 28.6394 18.0565 28.7999 18.2548 28.7999H21.2488C21.4471 28.7999 21.6077 28.6392 21.6077 28.4411V21.1398H24.2908C24.4891 21.1398 24.6496 20.9793 24.6496 20.781L24.6507 17.8874C24.6507 17.7922 24.6128 17.7011 24.5456 17.6337C24.4784 17.5663 24.3869 17.5284 24.2917 17.5284H21.6077V15.8355C21.6077 15.0218 21.8016 14.6087 22.8615 14.6087L24.399 14.6082C24.5971 14.6082 24.7577 14.4474 24.7577 14.2493V11.5625C24.7577 11.3646 24.5973 11.204 24.3994 11.2036Z" fill="#F4F4F4"/>
</svg>
