<?xml version="1.0" standalone="no"?>
<!DOCTYPE svg PUBLIC "-//W3C//DTD SVG 20010904//EN"
 "http://www.w3.org/TR/2001/REC-SVG-20010904/DTD/svg10.dtd">
<svg version="1.0" xmlns="http://www.w3.org/2000/svg"
 width="260.000000pt" height="260.000000pt" viewBox="0 0 260.000000 260.000000"
 preserveAspectRatio="xMidYMid meet">
<metadata>
Created by potrace 1.11, written by Peter Selinger 2001-2013
</metadata>
<g transform="translate(0.000000,260.000000) scale(0.100000,-0.100000)"
fill="#000000" stroke="none">
<path d="M306 2422 c-2 -4 13 -31 35 -59 32 -41 40 -58 37 -85 l-3 -33 -33 58
-33 58 -67 -3 c-84 -4 -88 -22 -5 -26 58 -3 64 -5 78 -32 15 -29 15 -30 -9
-30 -14 0 -41 -13 -59 -30 -20 -17 -46 -30 -61 -30 -16 0 -26 -5 -26 -15 0
-10 10 -15 26 -15 15 0 41 -13 61 -30 18 -16 45 -30 59 -30 24 0 24 -1 9 -30
-14 -27 -20 -29 -78 -32 -81 -4 -76 -22 7 -26 l64 -3 34 58 33 58 3 -34 c3
-25 -4 -43 -29 -75 -18 -22 -36 -46 -41 -53 -5 -6 -5 -14 1 -17 5 -3 28 17 50
45 32 40 41 60 41 90 0 22 5 39 10 39 6 0 10 -15 10 -34 0 -25 11 -48 46 -90
44 -53 64 -68 64 -47 0 6 -18 31 -40 56 -27 31 -40 56 -40 76 0 38 13 37 46
-6 26 -34 28 -35 95 -35 88 0 91 18 4 22 -63 3 -67 5 -87 37 l-22 33 23 -7
c25 -7 51 9 51 32 0 12 -3 13 -15 3 -16 -13 -35 -6 -35 15 0 21 19 28 35 15
12 -10 15 -9 15 3 0 23 -23 37 -50 30 l-24 -6 21 34 c21 32 25 34 88 37 79 4
86 25 10 30 -68 5 -87 -3 -113 -43 -27 -43 -42 -45 -42 -6 0 20 13 45 40 76
22 25 40 50 40 56 0 21 -20 6 -64 -47 -35 -42 -46 -65 -46 -90 0 -19 -4 -34
-10 -34 -5 0 -10 17 -10 39 0 30 -9 50 -41 90 -43 54 -45 56 -53 43z m69 -211
c15 -47 -39 -78 -93 -55 -24 10 -32 19 -32 39 0 52 109 65 125 16z m99 13 c9
-8 16 -22 16 -29 0 -18 -27 -45 -45 -45 -18 0 -45 27 -45 45 0 18 27 45 45 45
7 0 21 -7 29 -16z"/>
<path d="M1683 1433 c-24 -2 -43 -8 -43 -14 0 -5 7 -9 15 -9 22 0 28 -42 22
-146 l-5 -94 44 0 c38 0 44 3 44 21 0 15 -4 19 -16 15 -14 -5 -15 -2 -9 21 25
90 25 215 1 211 -6 -1 -30 -3 -53 -5z"/>
<path d="M1248 1415 c-30 -17 -42 -57 -32 -109 5 -29 3 -36 -10 -36 -9 0 -16
-6 -16 -14 0 -8 8 -12 23 -9 17 3 26 -4 39 -34 11 -22 14 -39 8 -41 -6 -2 -10
-11 -10 -19 0 -11 6 -14 23 -9 12 3 34 6 49 6 l27 0 -24 43 c-14 23 -25 45
-25 50 0 15 30 6 40 -13 18 -33 35 -14 32 34 -3 33 -7 43 -18 39 -8 -3 -14
-11 -14 -19 0 -24 -47 -17 -54 9 -17 64 1 117 39 117 34 0 39 -15 9 -29 -16
-7 -24 -18 -22 -29 3 -13 13 -17 47 -15 52 2 66 13 56 43 -14 43 -113 64 -167
35z"/>
<path d="M1024 1413 c-38 -4 -40 -6 -36 -33 4 -25 1 -29 -24 -32 -15 -2 -29
-9 -32 -15 -2 -9 5 -11 29 -6 29 6 32 4 24 -13 -4 -10 -10 -44 -13 -76 -4 -52
-2 -57 22 -73 20 -13 38 -16 72 -11 55 7 79 20 100 51 20 30 8 50 -36 60 -63
14 -93 -20 -45 -51 32 -21 32 -32 -1 -40 -33 -9 -44 7 -44 66 0 72 8 90 40 90
15 0 33 -7 40 -15 19 -23 30 -5 24 37 -5 25 -11 35 -20 31 -8 -3 -14 -11 -14
-19 0 -8 -10 -14 -25 -14 -29 0 -30 2 -10 40 12 23 12 30 3 28 -7 -1 -31 -3
-54 -5z"/>
<path d="M1833 1413 c-20 -8 -15 -31 8 -38 30 -10 89 3 89 19 0 21 -63 33 -97
19z"/>
<path d="M190 1392 c0 -8 8 -16 18 -18 15 -4 17 -18 17 -100 0 -73 -3 -97 -15
-104 -8 -5 -12 -11 -10 -13 8 -8 120 14 120 23 0 4 -7 24 -15 43 -20 49 -20
49 19 30 45 -21 82 -11 106 30 23 38 26 76 6 102 -12 17 -28 19 -130 20 -91 0
-116 -3 -116 -13z m214 -38 c42 -16 -6 -54 -69 -54 -43 0 -65 9 -65 26 0 26
90 45 134 28z"/>
<path d="M760 1340 c-8 -5 -27 -10 -42 -10 -33 0 -38 -25 -7 -33 18 -5 20 -10
13 -54 -4 -26 -13 -52 -20 -56 -30 -18 -10 -24 64 -19 84 5 111 16 64 27 -32
7 -42 26 -42 82 0 35 21 53 62 53 22 0 22 -1 -6 -23 -21 -17 -27 -29 -23 -42
6 -15 14 -16 50 -11 51 9 61 17 53 49 -8 35 -57 53 -107 40 -21 -5 -40 -6 -41
-2 -2 5 -10 4 -18 -1z"/>
<path d="M540 1329 c-72 -29 -93 -99 -44 -144 72 -67 167 -29 181 73 4 32 1
44 -16 61 -23 23 -77 27 -121 10z m107 -65 c11 -29 -23 -48 -84 -49 -46 0 -58
3 -61 17 -7 38 131 69 145 32z"/>
<path d="M1500 1329 c-72 -29 -93 -99 -44 -144 72 -67 167 -29 181 73 4 32 1
44 -16 61 -23 23 -77 27 -121 10z m107 -65 c11 -29 -23 -48 -84 -49 -46 0 -58
3 -61 17 -7 38 131 69 145 32z"/>
<path d="M1899 1335 c-3 -2 -30 -9 -60 -14 -43 -7 -49 -10 -31 -16 17 -6 22
-15 22 -41 0 -45 -16 -84 -35 -84 -8 0 -15 -5 -15 -11 0 -6 7 -8 16 -5 9 3 45
6 80 6 63 0 88 16 43 27 -20 6 -21 11 -17 74 3 38 4 69 3 69 -1 0 -4 -2 -6 -5z"/>
<path d="M2025 1333 c-59 -16 -97 -74 -77 -118 14 -29 68 -65 99 -65 35 0 68
19 86 50 18 30 22 96 8 119 -9 14 -83 23 -116 14z m89 -59 c45 -17 -14 -64
-81 -64 -21 0 -45 5 -53 10 -13 9 -11 14 13 35 28 25 83 33 121 19z"/>
<path d="M740 958 c0 -10 6 -18 14 -18 12 0 15 -21 18 -95 3 -86 1 -97 -17
-111 l-20 -15 20 5 c11 2 41 7 67 11 l48 6 -15 36 c-23 56 -20 64 16 46 38
-19 74 -10 100 27 29 41 33 73 10 101 -18 23 -25 24 -130 24 -99 0 -111 -2
-111 -17z m217 -44 c9 -25 -24 -44 -78 -44 -59 0 -81 21 -47 44 31 22 116 22
125 0z"/>
<path d="M1209 927 c-39 -7 -46 -12 -42 -28 5 -19 5 -19 -30 -3 -50 24 -90 7
-111 -47 -21 -53 -20 -85 4 -109 24 -24 58 -25 105 -6 18 8 35 11 37 6 2 -5
24 -6 51 -3 38 5 47 9 47 25 0 15 -5 19 -18 16 -16 -5 -18 1 -14 56 2 34 11
68 19 78 19 22 7 26 -48 15z m-32 -94 c4 -10 -2 -23 -16 -35 -35 -27 -111 -22
-111 8 0 38 113 63 127 27z"/>
<path d="M1316 904 c-17 -16 -14 -49 6 -91 13 -27 55 -38 91 -24 26 10 27 9
27 -20 0 -32 -15 -69 -34 -81 -16 -11 -76 -10 -76 1 0 5 14 14 30 20 17 5 30
16 30 24 0 30 -67 37 -98 10 -49 -43 29 -93 122 -79 68 10 89 42 84 126 -2 36
-8 73 -12 83 -6 13 -5 16 8 11 10 -4 16 -1 16 9 0 16 -73 33 -78 18 -2 -6 -16
-5 -35 0 -45 13 -63 11 -81 -7z m119 -47 c25 -19 11 -37 -29 -37 -37 0 -72 22
-62 38 10 16 68 15 91 -1z"/>
<path d="M1583 912 c-39 -12 -63 -40 -63 -72 0 -44 25 -87 62 -106 58 -30 145
-1 136 46 -5 22 -73 37 -94 20 -15 -13 -14 -16 12 -37 27 -22 28 -23 7 -23
-27 0 -53 35 -53 73 l0 29 58 -6 c31 -4 66 -10 76 -13 17 -5 18 -1 12 28 -3
19 -13 40 -20 48 -16 16 -99 24 -133 13z m92 -32 c0 -18 -62 -25 -85 -10 -13
9 -13 11 0 20 23 15 85 8 85 -10z"/>
</g>
</svg>
