<?xml version="1.0" standalone="no"?>
<!DOCTYPE svg PUBLIC "-//W3C//DTD SVG 20010904//EN"
 "http://www.w3.org/TR/2001/REC-SVG-20010904/DTD/svg10.dtd">
<svg version="1.0" xmlns="http://www.w3.org/2000/svg"
 width="480.000000pt" height="480.000000pt" viewBox="0 0 480.000000 480.000000"
 preserveAspectRatio="xMidYMid meet">
<metadata>
Created by potrace 1.11, written by Peter Selinger 2001-2013
</metadata>
<g transform="translate(0.000000,480.000000) scale(0.100000,-0.100000)"
fill="#000000" stroke="none">
<path d="M2710 4151 c0 -36 -29 -74 -74 -95 -55 -26 -133 -20 -250 19 -121 40
-181 44 -245 14 -61 -27 -150 -105 -158 -137 -3 -15 -19 -52 -35 -83 -54 -103
-60 -263 -13 -355 13 -26 22 -51 19 -55 -4 -8 11 -156 22 -206 6 -31 24 -29
24 3 l0 25 26 -20 c24 -19 40 -21 151 -21 95 0 129 4 148 16 27 18 45 62 45
110 0 31 3 34 30 34 29 0 30 -1 30 -51 0 -43 5 -55 29 -80 29 -29 30 -29 155
-29 117 0 127 1 153 24 22 19 29 36 35 82 5 42 5 33 2 -28 -3 -58 -1 -88 5
-88 6 0 11 3 12 8 0 4 5 43 10 87 5 44 11 98 13 120 1 22 11 53 21 69 28 42
33 199 11 287 -10 35 -21 97 -26 137 -11 88 -35 142 -85 200 -43 49 -55 52
-55 13z m-488 -520 c147 -52 329 -52 447 0 24 11 52 17 62 14 15 -5 57 -91 74
-152 8 -29 -15 -31 -40 -3 -16 18 -31 20 -145 20 -110 0 -131 -3 -152 -19 -40
-32 -90 -34 -128 -6 -32 24 -41 25 -159 25 -110 0 -129 -3 -151 -20 -37 -29
-43 -25 -35 23 11 63 32 109 63 135 32 27 42 26 164 -17z m88 -171 c16 -16 20
-33 20 -83 0 -94 -4 -97 -140 -101 -109 -2 -116 -1 -138 22 -22 21 -24 30 -20
89 6 88 13 93 150 93 95 0 110 -2 128 -20z m435 0 c27 -30 31 -130 7 -160 -17
-21 -27 -23 -135 -24 -144 -1 -149 2 -148 100 0 97 11 104 151 104 95 0 109
-2 125 -20z m-748 -157 c-3 -10 -5 -4 -5 12 0 17 2 24 5 18 2 -7 2 -21 0 -30z"/>
<path d="M3898 3563 c160 -193 311 -525 361 -794 92 -486 10 -941 -241 -1354
-102 -168 -272 -366 -410 -479 -26 -21 -45 -43 -41 -49 3 -6 1 -7 -5 -3 -6 4
-43 -16 -81 -44 -99 -72 -316 -182 -452 -228 -216 -75 -411 -106 -649 -106
-411 1 -783 130 -1140 393 -19 14 -38 30 -42 36 -4 5 -8 8 -8 5 0 -3 210 -216
467 -473 l468 -467 1338 0 1337 0 0 1338 0 1337 -466 468 c-256 257 -468 467
-471 467 -3 0 13 -21 35 -47z m-42 -3199 c37 -55 -25 -117 -80 -80 -49 31 -24
106 35 106 20 0 34 -8 45 -26z m118 0 c22 -21 20 -47 -4 -69 -30 -27 -70 -7
-70 34 0 45 44 66 74 35z m206 -27 c0 -7 14 -48 30 -90 17 -43 30 -80 30 -83
0 -14 -40 -1 -45 15 -8 25 -55 25 -76 -1 -9 -11 -22 -19 -30 -17 -24 6 46 189
72 189 10 0 19 -6 19 -13z m238 -9 c-2 -13 -10 -23 -18 -23 -8 0 -16 10 -18
23 -3 17 2 22 18 22 16 0 21 -5 18 -22z m82 -18 c0 -13 7 -20 20 -20 11 0 20
-7 20 -15 0 -8 -9 -15 -20 -15 -16 0 -20 -7 -20 -31 0 -22 5 -32 20 -36 32 -8
24 -33 -10 -33 -33 0 -50 22 -50 68 0 17 -6 32 -15 36 -8 3 -15 10 -15 16 0 5
7 10 15 10 8 0 15 9 15 20 0 13 7 20 20 20 13 0 20 -7 20 -20z m180 -53 c31
-55 -24 -113 -87 -91 -18 6 -30 20 -37 41 -22 80 82 122 124 50z m-401 -8 c14
-45 20 -44 37 4 7 21 18 33 32 35 l22 3 -24 -63 c-19 -51 -28 -64 -48 -66 -21
-3 -26 4 -42 50 -11 29 -21 59 -24 66 -2 7 4 12 15 12 14 0 23 -11 32 -41z
m141 -24 c0 -58 -2 -65 -20 -65 -18 0 -20 7 -20 65 0 58 2 65 20 65 18 0 20
-7 20 -65z m-439 32 c60 -46 35 -137 -39 -137 -31 0 -72 43 -72 75 0 53 71 93
111 62z m-146 -62 c0 -35 -31 -47 -51 -20 -18 25 0 57 29 53 17 -2 22 -10 22
-33z"/>
<path d="M4150 273 c0 -6 -3 -18 -6 -27 -4 -11 -1 -16 10 -16 9 0 16 6 16 13
0 16 -20 46 -20 30z"/>
<path d="M4597 254 c-4 -4 -7 -18 -7 -32 0 -18 4 -23 16 -18 9 4 13 2 8 -5 -4
-7 1 -10 12 -7 28 5 27 62 -1 66 -12 2 -24 0 -28 -4z"/>
<path d="M1925 2739 c-91 -13 -159 -38 -200 -72 -41 -33 -85 -116 -85 -159 l0
-28 335 0 c184 0 335 3 335 8 0 4 -26 36 -57 72 -96 111 -134 162 -129 177 4
10 -10 13 -67 12 -40 -1 -99 -5 -132 -10z"/>
<path d="M2667 2730 c4 -14 -19 -48 -83 -125 -49 -58 -90 -110 -92 -115 -2 -6
121 -10 332 -10 l336 0 0 28 c0 43 -44 126 -85 159 -60 50 -197 82 -347 83
-61 0 -66 -2 -61 -20z"/>
<path d="M1644 2000 c-53 -20 -54 -28 -54 -392 0 -332 0 -338 21 -357 12 -11
40 -23 63 -26 23 -3 364 -5 758 -3 711 3 717 3 745 24 l28 21 3 334 c1 184 0
344 -3 356 -13 54 -3 54 -802 52 -406 -1 -748 -5 -759 -9z"/>
<path d="M2140 975 l0 -105 -119 0 c-132 0 -131 1 -131 -71 l0 -39 510 0 510
0 0 39 c0 72 1 71 -131 71 l-119 0 0 105 0 105 -260 0 -260 0 0 -105z"/>
</g>
</svg>
